<svg width="116" height="106" viewBox="0 0 116 106" fill="none" xmlns="http://www.w3.org/2000/svg">
<path fill-rule="evenodd" clip-rule="evenodd" d="M60.5667 79.25H69.2292C91.3795 79.25 109.333 62.9283 109.333 42.7917C109.333 22.655 91.3795 6.33333 69.2292 6.33333H46.7708C24.6205 6.33333 6.66667 22.655 6.66667 42.7917C6.66667 66.3 21.4122 80.3583 36.9213 88.8342C44.7047 93.0867 52.5458 95.8342 58.4684 97.5171C59.1999 97.7242 59.9025 97.9167 60.5667 98.0917V79.25ZM66.9833 105.5C66.9833 105.5 64.5322 105.124 60.5667 104.15C43.8512 100.031 0.25 85.2292 0.25 42.7917C0.25 19.435 21.0785 0.5 46.7708 0.5H69.2292C94.9215 0.5 115.75 19.435 115.75 42.7917C115.75 66.1483 94.9215 85.0833 69.2292 85.0833H66.9833V105.5Z" fill="black"/>
<path fill-rule="evenodd" clip-rule="evenodd" d="M69.8419 19.4058C73.1465 21.4008 75.6362 24.6354 75.6362 28.9725C75.6362 33.575 73.5957 36.9583 70.2879 39.0291C68.982 39.8329 67.5407 40.4378 66.0208 40.82V45.2883C66.0208 46.4486 65.5138 47.5614 64.6112 48.3819C63.7087 49.2024 62.4846 49.6633 61.2083 49.6633C59.9319 49.6633 58.7079 49.2024 57.8053 48.3819C56.9028 47.5614 56.3958 46.4486 56.3958 45.2883V37.1304C56.3955 36.0204 56.8594 34.9518 57.6934 34.1411C58.5274 33.3304 59.6692 32.8381 60.8875 32.7641C62.6649 32.6562 64.0124 32.3354 64.8241 31.825C65.1532 31.6268 65.4188 31.3532 65.5941 31.0316C65.7866 30.6816 66.0112 30.0575 66.0112 28.9696C66.0112 28.0566 65.6197 27.3596 64.5129 26.6887C63.2552 25.9304 61.234 25.3704 58.8052 25.3004C56.4054 25.2304 54.073 25.6562 52.3565 26.4116C50.6368 27.17 50.0048 28.0216 49.8283 28.6487C49.6712 29.2053 49.395 29.7282 49.0155 30.1877C48.6361 30.6472 48.1608 31.0342 47.6167 31.3267C47.0727 31.6193 46.4707 31.8115 45.845 31.8925C45.2192 31.9734 44.5821 31.9416 43.9699 31.7987C43.3577 31.6559 42.7825 31.4048 42.277 31.0598C41.7716 30.7148 41.3458 30.2827 41.0241 29.7882C40.7023 29.2936 40.4909 28.7463 40.4018 28.1775C40.3127 27.6086 40.3478 27.0294 40.5049 26.4729C41.6118 22.5616 44.8297 20.0066 48.16 18.5396C51.4967 17.0666 55.4205 16.4454 59.11 16.5533C62.7772 16.6583 66.6913 17.4983 69.8419 19.4058V19.4058Z" fill="black"/>
<path d="M67.625 61.75C67.625 63.2971 66.9489 64.7809 65.7456 65.8748C64.5422 66.9688 62.9101 67.5834 61.2083 67.5834C59.5065 67.5834 57.8744 66.9688 56.671 65.8748C55.4677 64.7809 54.7916 63.2971 54.7916 61.75C54.7916 60.2029 55.4677 58.7192 56.671 57.6252C57.8744 56.5313 59.5065 55.9167 61.2083 55.9167C62.9101 55.9167 64.5422 56.5313 65.7456 57.6252C66.9489 58.7192 67.625 60.2029 67.625 61.75V61.75Z" fill="black"/>
</svg>
