<svg width="279" height="122" viewBox="0 0 279 122" fill="none" xmlns="http://www.w3.org/2000/svg">
<path d="M212.626 13.5986L212.627 13.5975L213.841 12.2305C212.484 9.13555 210.399 6.5267 207.819 4.68685C205.161 2.79077 202.085 1.78795 198.95 1.78741L212.626 13.5986ZM212.626 13.5986C210.361 16.1637 207.036 18.2759 202.149 20.1404C197.357 21.9687 191.092 23.5479 182.91 25.0887C182.88 24.919 182.849 24.7511 182.818 24.5842C182.578 23.2761 182.35 22.0333 182.35 20.5394C182.35 15.5482 184.112 10.7716 187.232 7.25822C190.351 3.7468 194.568 1.78743 198.95 1.78741L212.626 13.5986ZM221.081 42.5H213.573L211.77 36.4401L211.591 35.8397L211.045 36.147C208.234 37.7297 205.948 38.4892 203.695 38.4892C201.442 38.4892 199.157 37.7297 196.345 36.147L195.994 35.9492L195.726 36.2506L190.175 42.5H182.963L186.499 38.5191C187.576 37.3062 188.146 36.2741 188.117 35.3881C188.084 34.4074 187.352 33.8352 186.479 33.5075C185.603 33.1788 184.426 33.0258 183.149 32.9501C182.215 32.8947 181.199 32.8797 180.169 32.8756C180.605 32.46 181.06 32.099 181.574 31.7887C182.403 31.2882 183.412 30.9054 184.789 30.6574L184.792 30.6568C201.892 27.4482 210.6 24.2191 216.424 17.6628L216.467 17.6145C217.852 16.0548 218.613 15.1984 219.179 13.9239C219.734 12.6748 220.099 11.0272 220.794 7.90134L220.813 7.81449C221.862 3.1528 225.154 0.389262 228.311 0.50346C229.428 0.56276 230.499 0.972463 231.419 1.68319L231.419 1.68322L231.425 1.6873C233.494 3.24049 234.501 4.77057 234.998 6.07774C235.498 7.39022 235.5 8.51447 235.5 9.30906C235.5 13.981 232.756 16.8307 230.3 16.8307C229.381 16.8307 228.873 16.4785 228.325 16.0985C228.127 15.9614 227.924 15.8208 227.695 15.6918C227.264 15.4489 226.757 15.2924 226.132 15.5033C225.559 15.6969 224.953 16.1805 224.226 16.9987C223.452 17.8704 222.713 19.3451 222.043 21.0039C221.367 22.6792 220.738 24.6012 220.202 26.4137C219.665 28.2276 219.218 29.9397 218.905 31.1978C218.748 31.8271 218.625 32.3433 218.541 32.7025C218.499 32.8821 218.467 33.0225 218.445 33.1181L218.42 33.2275L218.414 33.2557L218.412 33.263L218.412 33.2649L218.412 33.2654C218.412 33.2655 218.412 33.2655 218.465 33.2774C218.521 33.2898 218.634 33.3149 218.863 33.3659L218.412 33.2656L218.384 33.3919L218.421 33.516L221.081 42.5Z" fill="#5BCCF6" stroke="black"/>
<path d="M35.2539 52.5V65H31.1523C30.8757 64.6419 30.5583 64.2757 30.2002 63.9014C29.8421 63.527 29.4434 63.1934 29.0039 62.9004C28.5645 62.5911 28.0843 62.347 27.5635 62.168C27.0426 61.9727 26.4811 61.875 25.8789 61.875V78.7939L29.0039 79.4043V90H7.12891V79.4043L10.2539 78.7939V61.875C9.65169 61.875 9.09017 61.9727 8.56934 62.168C8.0485 62.347 7.56836 62.5911 7.12891 62.9004C6.68945 63.1934 6.29069 63.527 5.93262 63.9014C5.57454 64.2757 5.25716 64.6419 4.98047 65H0.878906V52.5H35.2539ZM76.416 65.8057C76.3997 66.2939 76.3916 66.7741 76.3916 67.2461C76.3916 67.7018 76.3916 68.1413 76.3916 68.5645V72.3486C76.3916 75.6038 75.944 78.3952 75.0488 80.7227C74.1536 83.0339 72.9411 84.93 71.4111 86.4111C69.8812 87.8923 68.0827 88.9339 66.0156 89.5361C63.9648 90.1383 61.7839 90.4395 59.4727 90.4395C56.8034 90.4395 54.305 90.1383 51.9775 89.5361C49.6663 88.9339 47.6481 87.8923 45.9229 86.4111C44.2139 84.9137 42.863 83.0094 41.8701 80.6982C40.8936 78.387 40.4053 75.6038 40.4053 72.3486V65.8057L37.4756 65.2441V55.625H56.543V65.2441L53.6133 65.8057V68.7109C53.6133 69.1016 53.6133 69.5003 53.6133 69.9072C53.6133 70.2979 53.6133 70.6641 53.6133 71.0059C53.6296 71.3477 53.6377 71.6488 53.6377 71.9092C53.6377 72.1533 53.6377 72.3161 53.6377 72.3975C53.6377 72.7718 53.6458 73.2113 53.6621 73.7158C53.6784 74.2041 53.7435 74.7168 53.8574 75.2539C53.9714 75.7747 54.1423 76.2956 54.3701 76.8164C54.6143 77.321 54.9479 77.7767 55.3711 78.1836C55.8105 78.5905 56.3558 78.9242 57.0068 79.1846C57.6742 79.4287 58.4961 79.5508 59.4727 79.5508C60.4492 79.5508 61.2712 79.4287 61.9385 79.1846C62.6221 78.9242 63.1755 78.5905 63.5986 78.1836C64.0381 77.7604 64.3799 77.2884 64.624 76.7676C64.8682 76.2467 65.0391 75.7259 65.1367 75.2051C65.2507 74.668 65.3158 74.1553 65.332 73.667C65.3646 73.1624 65.3809 72.723 65.3809 72.3486C65.3809 72.2347 65.3809 72.0557 65.3809 71.8115C65.3809 71.5511 65.3727 71.2581 65.3564 70.9326C65.3564 70.5908 65.3564 70.2327 65.3564 69.8584C65.3564 69.4678 65.3564 69.0853 65.3564 68.7109V65.8057L62.4268 65.2441V55.625H79.3701V65.2441L76.416 65.8057ZM121.338 90H106.738C106.283 89.1536 105.811 88.2585 105.322 87.3145C104.834 86.3542 104.362 85.3532 103.906 84.3115C103.451 83.2699 103.019 82.1956 102.612 81.0889C102.222 79.9821 101.888 78.8428 101.611 77.6709H100.806V90H83.1787V80.2588L86.1084 79.6973V65.8057L83.1787 65.2441V55.625H103.174C105.827 55.625 108.114 55.7389 110.034 55.9668C111.971 56.1947 113.607 56.5283 114.941 56.9678C116.292 57.4072 117.383 57.9443 118.213 58.5791C119.043 59.1976 119.686 59.9056 120.142 60.7031C120.614 61.4844 120.931 62.347 121.094 63.291C121.257 64.235 121.338 65.236 121.338 66.2939C121.338 67.3682 121.232 68.3447 121.021 69.2236C120.825 70.1025 120.467 70.9082 119.946 71.6406C119.425 72.373 118.709 73.0485 117.798 73.667C116.903 74.2692 115.755 74.8389 114.355 75.376C114.648 75.9619 115.08 76.6618 115.649 77.4756C116.235 78.2731 116.87 79.0951 117.554 79.9414C118.237 80.7715 118.913 81.5771 119.58 82.3584C120.264 83.1396 120.85 83.807 121.338 84.3604V90ZM100.806 71.0547C101.701 71.0547 102.507 71.014 103.223 70.9326C103.955 70.835 104.574 70.6396 105.078 70.3467C105.599 70.0374 105.998 69.5898 106.274 69.0039C106.551 68.418 106.689 67.6286 106.689 66.6357C106.689 65.6592 106.551 64.8779 106.274 64.292C105.998 63.7061 105.599 63.2585 105.078 62.9492C104.574 62.6237 103.955 62.4121 103.223 62.3145C102.507 62.2168 101.701 62.168 100.806 62.168V71.0547ZM133.374 64.707C132.528 64.707 131.779 64.821 131.128 65.0488C130.477 65.2767 129.932 65.5615 129.492 65.9033C129.053 66.2451 128.719 66.6195 128.491 67.0264C128.263 67.417 128.149 67.7832 128.149 68.125H124.072V55.625H157.373V68.125H153.296C153.296 67.7832 153.182 67.417 152.954 67.0264C152.726 66.6195 152.393 66.2451 151.953 65.9033C151.514 65.5615 150.968 65.2767 150.317 65.0488C149.666 64.821 148.918 64.707 148.071 64.707V79.6973L151.001 80.2588V90H130.444V80.2588L133.374 79.6973V64.707ZM178.32 80.625C179.004 80.625 179.655 80.5355 180.273 80.3564C180.892 80.1611 181.462 79.917 181.982 79.624C182.52 79.3148 183 78.9811 183.423 78.623C183.862 78.2487 184.245 77.8743 184.57 77.5H188.647V90H160.718V80.2588L163.647 79.6973V65.8057L160.718 65.2441V55.625H181.274V65.2441L178.32 65.8057V80.625ZM209.57 70.7373L216.333 69.2969V76.2549L209.57 74.79V80.1855C210.547 80.1855 211.491 80.1204 212.402 79.9902C213.314 79.8438 214.16 79.6484 214.941 79.4043C215.723 79.1602 216.439 78.8753 217.09 78.5498C217.741 78.2243 218.302 77.8743 218.774 77.5H222.119V90H191.943V80.2588L194.873 79.6973V65.8545L191.943 65.293V55.625H222.119V68.125H218.774C218.302 67.7669 217.741 67.4251 217.09 67.0996C216.439 66.7741 215.723 66.4893 214.941 66.2451C214.16 66.001 213.314 65.8057 212.402 65.6592C211.491 65.5127 210.547 65.4395 209.57 65.4395V70.7373ZM275.61 72.3486C275.586 74.7656 275.232 76.9141 274.548 78.7939C273.889 80.6494 272.961 82.2607 271.765 83.6279C270.569 84.9707 269.165 86.1182 267.554 87.0703C265.942 87.998 264.209 88.7549 262.354 89.3408C260.498 89.9023 258.545 90.2563 256.494 90.4028C254.468 90.5737 252.429 90.6592 250.378 90.6592C246.667 90.6592 243.408 90.5127 240.601 90.2197C238.989 90.0244 236.584 89.4873 233.386 88.6084C230.774 87.9004 228.723 87.1558 227.234 86.3745V71.9092H238.257C239.526 73.667 240.955 74.9609 242.542 75.791C244.153 76.6211 245.801 77.0361 247.485 77.0361C247.925 77.0361 248.413 76.9995 248.95 76.9263C249.487 76.853 249.988 76.6455 250.452 76.3037C250.94 75.9619 251.343 75.4248 251.66 74.6924C252.002 73.96 252.173 72.9346 252.173 71.6162C250.073 71.4209 247.986 71.1401 245.911 70.7739C243.86 70.4077 241.895 69.9072 240.015 69.2725C238.135 68.6377 236.377 67.8442 234.741 66.8921C233.13 65.9155 231.726 64.7437 230.53 63.3765C229.358 62.0093 228.43 60.4102 227.747 58.5791C227.087 56.7236 226.758 54.5874 226.758 52.1704C226.758 49.5825 227.1 47.312 227.783 45.3589C228.467 43.3813 229.395 41.6846 230.566 40.2686C231.763 38.8281 233.154 37.644 234.741 36.7163C236.353 35.7642 238.074 35.0073 239.905 34.4458C241.76 33.8843 243.677 33.5303 245.654 33.3838C247.656 33.2373 249.646 33.1641 251.624 33.1641C254.504 33.1641 257.092 33.2739 259.387 33.4937C261.707 33.689 263.794 34.0063 265.649 34.4458C267.505 34.8853 269.141 35.3857 270.557 35.9473C271.997 36.4844 273.279 37.0093 274.402 37.522V51.8042H263.379C262.134 50.0464 260.742 48.7524 259.204 47.9224C257.69 47.0923 256.128 46.6772 254.517 46.6772C254.077 46.6772 253.577 46.7383 253.015 46.8604C252.454 46.958 251.929 47.2144 251.44 47.6294C250.952 48.02 250.537 48.606 250.195 49.3872C249.854 50.144 249.683 51.1816 249.683 52.5C253.955 52.6465 257.715 53.1104 260.962 53.8916C264.209 54.6729 266.907 55.8569 269.055 57.4438C271.228 59.0063 272.864 61.0205 273.962 63.4863C275.061 65.9277 275.61 68.8818 275.61 72.3486Z" fill="white"/>
</svg>
