<svg width="104" height="73" viewBox="0 0 104 73" fill="none" xmlns="http://www.w3.org/2000/svg">
<path d="M90.012 0.00668969C83.668 -0.211201 77.376 4.90923 75.4 13.0801C72.8 23.9746 72.8 23.9746 67.6 29.4219C57.2 40.3164 41.6 45.7637 10.4 51.2109C5.2 52.0825 2.6 53.9346 0 56.6582C10.4 56.6582 20.8 56.6582 13 64.8291L5.2 73H20.8L31.2 62.1055C41.6 67.5527 48.516 67.5527 58.916 62.1055L62.4 73H78L72.8 56.6582C72.8 56.6582 78 34.8692 83.2 29.4219C88.4 23.9746 88.4 29.4219 93.6 29.4219C98.8 29.4219 104 23.9746 104 15.8037C104 13.0801 104 7.63286 96.2 2.18559C94.38 0.878252 92.248 0.115635 90.012 0.00668969ZM36.4 2.18559C28.1252 2.18559 20.1894 5.62903 14.3383 11.7584C8.48713 17.8878 5.2 26.2009 5.2 34.8692C5.2 38.1375 5.876 40.7522 6.396 43.5848C37.18 38.2465 53.508 32.6358 62.036 23.6478L64.636 20.9242C62.1072 15.3198 58.1108 10.5831 53.1119 7.26568C48.1131 3.94824 42.3175 2.18651 36.4 2.18559V2.18559Z" fill="#0EB829"/>
</svg>
